# xmcd CD database file
#
# Track frame offsets:
#	150
#	21027
#	36667
#	51135
#	66634
#	81559
#	95160
#	111829
#	129667
#	145119
#	163499
#
# Disc length: 2312 seconds
#
# Revision: 0
# Processed by: cddbd v1.5.1PL2 Copyright (c) Steve Scherf et al.
# Submitted via: CDex 1.51
#
DISCID=ad09060b
DTITLE=Various Artist - Kennesaw Mountain High School Jazz Ensemble at GMEA
DYEAR=2006
DGENRE=Jazz
TTITLE0=St. Louis Blues
TTITLE1=Someone to Watch Over Me
TTITLE2=In the Stone
TTITLE3=Blues für Elise
TTITLE4=Senorita Fajita
TTITLE5=Just Before Sunset
TTITLE6=Bari Bari Good
TTITLE7=Over the Rainbow
TTITLE8=Until I Met You
TTITLE9=Land of Make Believe
TTITLE10=Get it On
EXTD=YEAR: 2006
EXTT0=
EXTT1=
EXTT2=
EXTT3=
EXTT4=
EXTT5=
EXTT6=
EXTT7=
EXTT8=
EXTT9=
EXTT10=
PLAYORDER=
